<?xml version="1.0" encoding="UTF-8" standalone="no"?>
<svg width="40px" height="28px" viewBox="0 0 40 28" version="1.1" xmlns="http://www.w3.org/2000/svg" xmlns:xlink="http://www.w3.org/1999/xlink" xmlns:sketch="http://www.bohemiancoding.com/sketch/ns">
    <!-- Generator: Sketch 3.4.4 (17249) - http://www.bohemiancoding.com/sketch -->
    <title>logo</title>
    <desc>Created with Sketch.</desc>
    <defs></defs>
    <g id="Page-1" stroke="none" stroke-width="1" fill="none" fill-rule="evenodd" sketch:type="MSPage">
        <g id="logo" sketch:type="MSLayerGroup">
            <path d="M30.1625792,9.89593443 C28.9669945,9.89593443 27.9977049,8.92664481 27.9977049,7.73106011 C27.9977049,6.53562842 28.9669945,5.5664918 30.1625792,5.5664918 C31.3580109,5.5664918 32.3271475,6.53562842 32.3271475,7.73106011 C32.3271475,8.92664481 31.3580109,9.89593443 30.1625792,9.89593443 M39.3383169,9.38657923 C38.6583607,7.36935519 36.9583169,5.98526776 35.0067322,5.61224044 C33.7999781,3.70579235 32.0436284,2.11698361 29.8362186,1.11342077 C23.8875191,-1.59079781 17.5212678,1.29320219 14.0881311,6.82878689 C11.7280219,6.33672131 9.3575082,5.25298361 7.44463388,2.51510383 C7.64874317,6.18922404 8.39418579,9.19440437 9.4528306,11.6230601 C6.92059016,12.964459 3.72201093,12.9415082 0.12010929,9.62465574 C0.252459016,16.5939016 4.29868852,23.2066448 11.0674973,26.2837377 C20.4569836,30.5521311 31.528765,26.4006339 35.7971585,17.0111475 C36.7946011,14.8168962 37.0761311,12.4800437 36.7415082,10.2620765 L39.3383169,9.38657923" id="Fill-3" fill="#00DBFF" sketch:type="MSShapeGroup"></path>
            <path d="M18.5470164,21.0590601 C17.4689399,21.0590601 16.3731148,20.8812678 15.3267104,20.5660765 C12.5031475,19.7159781 8.90996721,17.1863388 6.6275847,12.4440874 C7.22644809,12.4076721 7.80144262,12.2877158 8.35073224,12.1008962 C8.73064481,11.9719126 9.09816393,11.8109508 9.4528306,11.6230601 C11.5061639,16.3336393 14.7385574,18.8739891 17.4914317,19.907388 C18.2295301,20.1843279 18.9864481,20.3156066 19.7309727,20.3156066 C22.2523497,20.3156066 24.6288306,18.8094208 25.6326995,16.3541421 C24.2602404,19.7572896 21.4659016,21.0590601 18.5470164,21.0590601 M25.6326995,16.3541421 C25.6559563,16.296306 25.6789071,16.2377049 25.7015519,16.1784918 C25.6793661,16.2375519 25.6562623,16.296153 25.6326995,16.3541421" id="Fill-5" fill="#00A9C5" sketch:type="MSShapeGroup"></path>
        </g>
    </g>
</svg>