<?xml version="1.0" encoding="utf-8"?>
<!-- Generator: Adobe Illustrator 18.0.0, SVG Export Plug-In . SVG Version: 6.00 Build 0)  -->
<!DOCTYPE svg PUBLIC "-//W3C//DTD SVG 1.1//EN" "http://www.w3.org/Graphics/SVG/1.1/DTD/svg11.dtd">
<svg version="1.1" id="图层_1" xmlns:sketch="http://www.bohemiancoding.com/sketch/ns"
	 xmlns="http://www.w3.org/2000/svg" xmlns:xlink="http://www.w3.org/1999/xlink" x="0px" y="0px" viewBox="0 0 80 28"
	 enable-background="new 0 0 80 28" xml:space="preserve">
<title>logo</title>
<desc>Created with Sketch.</desc>
<g>
	<path fill="#686868" d="M1.2,22.5v-17h3.3l7,11.3V5.5h3.2v17h-3.4L4.4,11.4v11.1H1.2z"/>
	<path fill="#686868" d="M17.6,14.1c0-1.7,0.3-3.2,0.8-4.4c0.4-0.9,0.9-1.6,1.6-2.3c0.7-0.7,1.4-1.2,2.2-1.5
		c1.1-0.4,2.3-0.7,3.7-0.7c2.5,0,4.5,0.8,6,2.3c1.5,1.6,2.3,3.7,2.3,6.5c0,2.7-0.7,4.9-2.2,6.4c-1.5,1.5-3.5,2.3-6,2.3
		c-2.5,0-4.5-0.8-6-2.3C18.3,18.9,17.6,16.8,17.6,14.1z M21.1,14c0,1.9,0.4,3.4,1.3,4.4c0.9,1,2,1.5,3.4,1.5c1.4,0,2.5-0.5,3.4-1.5
		c0.9-1,1.3-2.5,1.3-4.4c0-1.9-0.4-3.4-1.3-4.4c-0.9-1-2-1.4-3.4-1.4c-1.4,0-2.6,0.5-3.4,1.5S21.1,12,21.1,14z"/>
	<path fill="#686868" d="M40.6,22.5V8.4h-5V5.5H49v2.9h-5v14.1H40.6z"/>
	<path fill="#686868" d="M51.2,22.5v-17h12.6v2.9h-9.2v3.8h8.5V15h-8.5v4.6h9.5v2.9H51.2z"/>
	<path fill="#686868" d="M66.2,17l3.3-0.3c0.2,1.1,0.6,1.9,1.2,2.5c0.6,0.5,1.4,0.8,2.5,0.8c1.1,0,1.9-0.2,2.5-0.7
		c0.6-0.5,0.8-1,0.8-1.6c0-0.4-0.1-0.7-0.4-1S75.6,16,75,15.8c-0.4-0.1-1.3-0.4-2.7-0.7c-1.8-0.5-3.1-1-3.9-1.7
		c-1-0.9-1.6-2.1-1.6-3.4c0-0.9,0.2-1.7,0.7-2.4s1.2-1.3,2.1-1.7c0.9-0.4,2-0.6,3.3-0.6c2.1,0,3.7,0.5,4.8,1.4s1.6,2.2,1.7,3.7
		l-3.4,0.2c-0.1-0.9-0.5-1.5-0.9-1.9c-0.5-0.4-1.2-0.6-2.2-0.6c-1,0-1.8,0.2-2.3,0.6c-0.4,0.3-0.5,0.6-0.5,1.1c0,0.4,0.2,0.7,0.5,1
		c0.4,0.4,1.5,0.7,3.2,1.1c1.7,0.4,2.9,0.8,3.7,1.2s1.4,1,1.9,1.7c0.5,0.7,0.7,1.6,0.7,2.7c0,1-0.3,1.9-0.8,2.7
		c-0.5,0.8-1.3,1.5-2.3,1.9c-1,0.4-2.2,0.6-3.7,0.6c-2.1,0-3.8-0.5-4.9-1.5S66.4,18.9,66.2,17z"/>
</g>
<g>
	<path fill="#3C3C3C" d="M0,22.5v-17h3.3l7,11.3V5.5h3.2v17H10L3.2,11.4v11.1H0z"/>
	<path fill="#3C3C3C" d="M16.4,14.1c0-1.7,0.3-3.2,0.8-4.4c0.4-0.9,0.9-1.6,1.6-2.3s1.4-1.2,2.2-1.5c1.1-0.4,2.3-0.7,3.7-0.7
		c2.5,0,4.5,0.8,6,2.3c1.5,1.6,2.3,3.7,2.3,6.5c0,2.7-0.7,4.9-2.2,6.4c-1.5,1.5-3.5,2.3-6,2.3c-2.5,0-4.5-0.8-6-2.3
		C17.2,18.9,16.4,16.8,16.4,14.1z M19.9,14c0,1.9,0.4,3.4,1.3,4.4c0.9,1,2,1.5,3.4,1.5c1.4,0,2.5-0.5,3.4-1.5c0.9-1,1.3-2.5,1.3-4.4
		c0-1.9-0.4-3.4-1.3-4.4c-0.9-1-2-1.4-3.4-1.4c-1.4,0-2.6,0.5-3.4,1.5C20.4,10.6,19.9,12,19.9,14z"/>
	<path fill="#3C3C3C" d="M39.4,22.5V8.4h-5V5.5h13.5v2.9h-5v14.1H39.4z"/>
	<path fill="#3C3C3C" d="M50.1,22.5v-17h12.6v2.9h-9.2v3.8H62V15h-8.5v4.6H63v2.9H50.1z"/>
	<path fill="#3C3C3C" d="M65,17l3.3-0.3c0.2,1.1,0.6,1.9,1.2,2.5c0.6,0.5,1.4,0.8,2.5,0.8c1.1,0,1.9-0.2,2.5-0.7
		c0.6-0.5,0.8-1,0.8-1.6c0-0.4-0.1-0.7-0.4-1s-0.6-0.5-1.2-0.7c-0.4-0.1-1.3-0.4-2.7-0.7c-1.8-0.5-3.1-1-3.9-1.7
		c-1-0.9-1.6-2.1-1.6-3.4c0-0.9,0.2-1.7,0.7-2.4c0.5-0.8,1.2-1.3,2.1-1.7c0.9-0.4,2-0.6,3.3-0.6c2.1,0,3.7,0.5,4.8,1.4
		s1.6,2.2,1.7,3.7l-3.4,0.2C74.8,9.6,74.4,9,74,8.6s-1.2-0.6-2.2-0.6c-1,0-1.8,0.2-2.3,0.6c-0.4,0.3-0.5,0.6-0.5,1.1
		c0,0.4,0.2,0.7,0.5,1c0.4,0.4,1.5,0.7,3.2,1.1c1.7,0.4,2.9,0.8,3.7,1.2s1.4,1,1.9,1.7c0.5,0.7,0.7,1.6,0.7,2.7c0,1-0.3,1.9-0.8,2.7
		c-0.5,0.8-1.3,1.5-2.3,1.9c-1,0.4-2.2,0.6-3.7,0.6c-2.1,0-3.8-0.5-4.9-1.5C65.9,20.3,65.2,18.9,65,17z"/>
</g>
</svg>
